<?xml version="1.0" standalone="no"?>
<!DOCTYPE svg PUBLIC "-//W3C//DTD SVG 20010904//EN"
 "http://www.w3.org/TR/2001/REC-SVG-20010904/DTD/svg10.dtd">
<svg version="1.0" xmlns="http://www.w3.org/2000/svg"
 width="512.000000pt" height="512.000000pt" viewBox="0 0 512.000000 512.000000"
 preserveAspectRatio="xMidYMid meet">
<metadata>
Created by potrace 1.14, written by Peter Selinger 2001-2017
</metadata>
<g transform="translate(0.000000,512.000000) scale(0.100000,-0.100000)"
fill="#000000" stroke="none">
<path d="M1926 4705 c-14 -11 -23 -12 -32 -4 -17 14 -37 1 -29 -18 4 -12 3
-13 -8 -5 -8 7 -18 8 -23 4 -4 -4 -2 1 5 11 8 10 9 17 3 17 -6 0 -14 -10 -17
-21 -5 -15 -10 -18 -15 -9 -5 8 -9 7 -14 -6 -3 -9 -9 -14 -13 -11 -3 4 -14 2
-24 -4 -13 -7 -19 -6 -19 1 0 6 -5 8 -10 5 -6 -4 -8 -12 -4 -18 3 -7 -2 -3
-10 7 -16 19 -16 19 -16 -4 0 -23 0 -23 -15 -4 -14 18 -14 18 -15 0 0 -15 -3
-16 -15 -6 -12 10 -16 9 -21 -4 -4 -10 -13 -15 -22 -11 -11 4 -12 2 -4 -8 12
-14 10 -15 -42 -20 -13 -1 -22 -5 -19 -9 2 -5 -1 -8 -7 -8 -6 0 -8 -5 -4 -12
4 -6 3 -8 -3 -5 -6 4 -24 -3 -39 -15 -26 -20 -27 -20 -14 -3 14 19 14 19 -5 4
-11 -9 -27 -14 -35 -12 -12 4 -12 3 -1 -5 15 -11 -2 -27 -19 -17 -6 4 -10 3
-9 -2 4 -21 -2 -33 -16 -33 -8 0 -15 -5 -15 -11 0 -5 -6 -7 -12 -3 -9 5 -8 2
1 -9 8 -10 11 -20 7 -24 -3 -3 -6 -1 -6 5 0 7 -5 12 -11 12 -6 0 -9 -6 -6 -14
3 -8 -1 -13 -11 -12 -9 0 -17 -4 -17 -11 0 -6 -4 -15 -9 -20 -5 -4 -6 -3 -3 3
4 7 0 14 -7 17 -10 4 -13 0 -11 -14 3 -17 1 -18 -18 -8 -12 7 -19 8 -15 4 4
-4 0 -14 -10 -22 -9 -8 -11 -12 -4 -8 18 9 15 2 -9 -18 -20 -18 -21 -18 -14 5
6 19 3 17 -17 -9 -19 -26 -27 -30 -37 -20 -10 9 -10 6 -2 -16 10 -26 9 -27 -9
-17 -15 8 -18 7 -15 -2 3 -7 -8 -22 -24 -33 -17 -11 -28 -21 -26 -24 3 -2 13
2 22 10 16 12 17 12 6 -2 -7 -9 -9 -19 -5 -23 4 -4 2 -7 -3 -6 -6 1 -17 2 -25
1 -13 -1 -13 -2 0 -11 13 -8 12 -10 -2 -10 -20 0 -25 -20 -5 -20 7 0 8 -3 2
-8 -10 -6 -35 -56 -35 -68 0 -3 6 -2 13 1 6 4 1 -4 -13 -16 -16 -14 -19 -20
-8 -16 10 3 20 2 23 -3 4 -6 -1 -10 -9 -10 -8 0 -18 -5 -22 -12 -4 -6 -3 -8 3
-5 6 4 14 0 17 -9 3 -8 2 -12 -3 -9 -5 3 -12 1 -16 -5 -3 -5 0 -10 7 -10 9 0
9 -3 -2 -10 -13 -9 -13 -10 0 -10 13 0 13 -1 0 -10 -13 -8 -13 -10 -1 -10 11
0 9 -4 -5 -15 -19 -15 -19 -15 1 -9 16 6 18 4 8 -6 -9 -9 -9 -18 -1 -33 7 -15
7 -22 -3 -28 -8 -5 -9 -9 -3 -9 6 0 17 -18 24 -40 12 -36 20 -45 42 -41 4 0 5
-6 2 -14 -4 -9 0 -15 10 -15 9 0 16 -8 17 -17 0 -15 2 -15 9 2 7 16 9 16 9 4
1 -9 8 -20 17 -23 9 -3 12 -11 8 -18 -5 -8 -2 -9 11 -4 14 5 16 4 7 -7 -7 -8
-8 -18 -4 -23 4 -4 -2 -2 -12 6 -18 14 -19 14 -8 -7 14 -25 15 -36 4 -29 -4 2
-16 -3 -27 -11 -16 -12 -16 -14 -3 -10 10 3 20 2 23 -4 4 -5 1 -8 -7 -7 -7 2
-12 -3 -10 -10 1 -8 -2 -11 -9 -6 -9 5 -10 2 -6 -9 4 -11 -2 -22 -18 -33 -15
-10 -22 -21 -18 -31 4 -10 2 -14 -4 -10 -7 4 -9 0 -7 -11 3 -9 -3 -26 -14 -37
-10 -12 -18 -29 -16 -38 2 -15 0 -16 -13 -5 -15 12 -15 10 -3 -12 13 -24 12
-24 -6 -10 -10 8 -16 11 -12 6 4 -5 3 -17 -2 -27 -7 -12 -6 -19 3 -22 9 -3 9
-8 -2 -18 -8 -9 -11 -9 -7 -2 5 9 2 11 -9 7 -11 -5 -13 -10 -6 -17 7 -7 5 -14
-7 -24 -16 -12 -15 -13 3 -7 18 5 18 4 -2 -13 -16 -12 -20 -22 -14 -32 11 -17
-8 -53 -24 -43 -5 3 -3 -3 5 -13 8 -10 10 -16 4 -12 -7 4 -15 0 -18 -9 -4 -11
-2 -15 7 -11 7 3 13 -3 13 -14 0 -14 -3 -15 -14 -7 -22 19 -10 -14 13 -34 11
-9 16 -17 11 -18 -5 0 -3 -7 4 -15 7 -8 9 -15 4 -15 -5 0 -2 -5 6 -11 13 -10
13 -10 -1 -6 -9 3 -16 -1 -16 -9 0 -7 3 -12 6 -10 3 2 12 -2 19 -10 10 -11 10
-14 0 -14 -10 0 -10 -2 -1 -8 10 -7 10 -12 -1 -28 -11 -15 -12 -22 -3 -33 9
-12 9 -13 -1 -7 -8 5 -16 -2 -23 -23 -7 -19 -15 -28 -22 -24 -7 4 -5 -2 3 -12
9 -11 10 -16 3 -11 -7 4 -13 4 -14 -1 0 -4 -2 -16 -4 -25 -2 -10 0 -18 4 -18
4 0 8 -7 8 -15 0 -8 -4 -15 -9 -15 -4 0 -8 -12 -8 -26 0 -17 -4 -23 -12 -18
-7 4 -4 -3 7 -16 l20 -23 -25 13 c-23 12 -24 12 -11 -3 12 -16 8 -21 -12 -18
-4 1 -3 -7 2 -18 6 -10 7 -21 4 -25 -3 -3 0 -6 8 -7 8 0 6 -4 -6 -9 -19 -8
-19 -9 3 -9 26 -1 29 -16 5 -30 -16 -9 -16 -10 -2 -11 9 0 19 -7 22 -14 4 -11
1 -13 -11 -10 -15 5 -15 4 0 -6 18 -11 22 -64 5 -53 -5 3 -24 6 -41 7 -38 1
-59 14 -49 29 4 7 0 6 -10 -2 -15 -11 -17 -11 -17 1 0 8 -7 15 -15 15 -12 0
-12 -3 -3 -16 9 -11 7 -11 -8 2 -21 17 -69 33 -60 19 2 -4 -2 -13 -10 -20 -8
-7 -14 -8 -14 -2 0 5 -3 9 -7 9 -22 -4 -33 2 -27 14 6 9 5 9 -8 0 -8 -7 -18
-9 -22 -5 -4 4 -7 2 -6 -3 5 -21 -1 -29 -10 -15 -8 12 -10 12 -10 1 0 -10 -3
-11 -14 -2 -11 9 -18 8 -30 -4 -9 -9 -14 -20 -11 -25 3 -5 0 -12 -6 -16 -8 -4
-9 -3 -5 4 5 8 0 12 -13 12 -12 0 -21 -4 -21 -9 0 -5 -14 -14 -31 -20 -22 -7
-29 -15 -25 -26 3 -9 -3 -19 -14 -25 -16 -9 -19 -8 -15 7 3 10 0 6 -7 -8 -7
-14 -19 -24 -25 -22 -7 3 -16 -2 -19 -11 -3 -9 -11 -13 -17 -9 -6 4 -8 -1 -5
-14 4 -16 1 -19 -12 -16 -10 3 -21 -1 -25 -8 -6 -8 -4 -10 5 -4 9 6 11 4 6 -4
-5 -7 -15 -10 -23 -7 -8 3 -12 2 -8 -3 3 -5 -6 -18 -20 -29 -17 -14 -21 -22
-13 -25 8 -3 6 -6 -4 -6 -10 -1 -18 -5 -18 -11 0 -5 -5 -10 -11 -10 -5 0 -7 6
-3 13 4 7 3 9 -2 4 -9 -9 -10 -13 -13 -44 -1 -16 -3 -16 -12 -3 -9 12 -10 11
-6 -8 3 -14 1 -20 -6 -15 -6 4 -8 0 -4 -10 5 -13 1 -17 -16 -18 -12 0 -16 -3
-9 -6 10 -4 9 -9 -5 -19 -15 -12 -15 -13 -1 -8 19 6 19 -15 0 -38 -6 -8 -8
-19 -4 -23 4 -5 -1 -5 -11 -2 -15 6 -16 4 -7 -13 8 -15 8 -18 -3 -14 -8 3 -17
-2 -21 -11 -3 -9 -2 -13 4 -10 6 3 10 2 10 -4 0 -5 -8 -12 -17 -14 -16 -4 -15
-5 1 -6 20 -1 20 -1 0 -16 -11 -8 -14 -15 -6 -15 6 0 12 -5 12 -11 0 -5 -6 -7
-12 -3 -8 5 -7 0 2 -11 11 -14 12 -17 1 -11 -9 6 -12 5 -9 -5 3 -8 -2 -20 -11
-27 -13 -11 -13 -12 -1 -7 10 4 9 2 -2 -8 -10 -8 -18 -19 -18 -24 0 -5 -9 -18
-19 -27 -15 -14 -17 -24 -11 -46 6 -21 5 -27 -4 -24 -7 3 -13 -2 -13 -10 0 -8
4 -13 8 -11 4 3 6 -6 5 -20 -1 -24 -16 -37 -16 -13 0 6 -3 8 -6 5 -4 -4 -2
-13 4 -20 7 -8 8 -18 4 -23 -4 -4 1 -2 11 5 15 12 17 12 11 -4 -6 -14 -4 -16
7 -10 11 7 12 6 2 -7 -7 -8 -9 -19 -5 -23 4 -5 1 -5 -6 -1 -7 4 -9 12 -6 18 5
7 2 8 -6 3 -10 -6 -6 -14 15 -33 27 -23 28 -24 6 -17 -21 6 -22 5 -10 -8 8 -8
17 -13 21 -10 4 2 5 -3 2 -11 -3 -9 -11 -13 -18 -9 -8 5 -8 3 1 -8 9 -11 8
-18 -3 -33 -8 -11 -14 -15 -14 -10 0 6 6 16 13 24 10 12 9 12 -4 2 -9 -6 -19
-9 -22 -5 -4 3 -7 -337 -7 -756 l0 -761 2560 0 2560 0 0 2305 c0 2298 0 2305
-20 2305 -11 0 -20 -5 -20 -12 0 -6 -3 -8 -6 -5 -4 4 -2 13 4 20 9 11 3 13
-33 11 -25 -1 -43 1 -40 5 8 14 -44 0 -55 -15 -6 -7 -19 -10 -27 -7 -12 5 -14
3 -8 -8 8 -12 6 -12 -8 0 -17 14 -24 26 -9 17 5 -3 9 1 9 9 0 10 -5 11 -17 5
-10 -5 -21 -6 -25 -2 -5 4 -5 1 -1 -6 4 -7 2 -20 -6 -29 -9 -12 -9 -15 0 -9
17 10 15 -9 -3 -24 -8 -7 -11 -17 -7 -24 4 -6 7 -21 7 -33 1 -16 -2 -19 -11
-12 -8 7 -11 5 -10 -8 0 -10 6 -21 11 -25 6 -5 5 -8 -3 -8 -7 0 -10 -4 -7 -10
3 -5 1 -10 -4 -10 -6 0 -11 -5 -11 -11 0 -5 5 -7 10 -4 6 3 10 1 10 -4 0 -6
-5 -11 -12 -11 -6 0 -9 -3 -5 -6 3 -3 2 -17 -4 -31 -7 -18 -6 -22 4 -17 9 5 9
4 0 -7 -17 -17 -17 -32 0 -24 6 4 4 0 -6 -8 -14 -11 -15 -16 -5 -20 9 -4 10
-6 1 -6 -7 -1 -10 -8 -7 -16 4 -9 0 -15 -7 -15 -11 0 -11 -3 1 -10 13 -9 13
-10 0 -10 -13 0 -13 -1 0 -10 10 -6 11 -10 3 -10 -7 0 -13 -7 -13 -16 0 -9 5
-12 12 -8 7 4 8 3 4 -4 -4 -7 -15 -12 -24 -12 -13 0 -13 -2 4 -16 10 -8 13
-12 5 -8 -11 5 -13 3 -8 -9 4 -10 1 -17 -6 -17 -8 0 -6 -4 3 -10 11 -7 11 -10
2 -10 -7 0 -10 -4 -7 -10 3 -5 0 -10 -7 -10 -9 0 -9 -3 2 -10 11 -7 11 -10 2
-10 -9 0 -10 -5 -4 -16 12 -22 3 -56 -12 -47 -6 4 -4 -2 4 -12 13 -17 13 -18
-1 -13 -12 5 -15 1 -11 -18 2 -14 9 -21 16 -17 6 3 0 -6 -14 -22 -14 -16 -19
-25 -12 -21 6 4 12 2 12 -3 0 -6 -8 -11 -17 -12 -15 0 -15 -2 -3 -7 20 -9 24
-33 5 -26 -18 7 -19 0 -5 -26 7 -14 6 -23 -6 -34 -8 -9 -11 -16 -5 -16 6 0 11
-5 11 -11 0 -5 -6 -7 -12 -3 -10 6 -10 4 0 -8 10 -13 10 -18 1 -24 -8 -5 -9
-3 -4 6 6 9 4 11 -5 5 -10 -6 -9 -11 5 -22 18 -12 17 -13 -6 -14 l-24 0 23 -9
c12 -5 22 -12 22 -15 0 -4 -3 -4 -7 -2 -5 3 -14 -1 -21 -9 -9 -10 -9 -14 -1
-14 8 0 7 -5 -2 -17 -8 -9 -9 -14 -3 -10 6 3 11 0 11 -8 0 -8 -3 -13 -5 -10
-3 3 -11 -7 -19 -21 -17 -34 -17 -43 0 -19 11 14 16 15 22 5 6 -9 4 -11 -5 -5
-10 6 -12 3 -8 -13 4 -12 2 -20 -2 -17 -5 3 -11 1 -15 -5 -3 -5 0 -10 7 -10 7
-1 2 -7 -12 -16 -20 -12 -21 -14 -4 -9 16 4 20 1 19 -15 -1 -11 -5 -23 -10
-27 -4 -5 -5 -3 -1 4 3 6 2 14 -3 18 -14 8 -5 -33 11 -54 11 -14 11 -14 -3 -3
-14 10 -18 10 -23 -3 -3 -9 -2 -13 4 -10 16 10 6 -29 -15 -61 -13 -20 -14 -25
-3 -16 13 10 15 8 14 -17 -1 -16 -4 -27 -8 -25 -4 2 -9 0 -13 -6 -3 -5 -2 -10
3 -10 5 0 9 -7 9 -15 0 -10 -4 -12 -12 -5 -8 7 -12 5 -12 -5 0 -8 7 -15 14
-15 8 0 11 -5 8 -10 -4 -6 -10 -8 -14 -6 -4 3 -7 -4 -8 -14 -1 -13 3 -17 15
-13 10 3 13 1 7 -4 -5 -4 -17 -17 -25 -27 -14 -18 -13 -19 3 -13 13 5 16 3 10
-6 -4 -6 -8 -20 -9 -29 -3 -36 -4 -39 -13 -33 -5 3 -13 0 -17 -6 -4 -7 -3 -9
3 -6 6 4 14 0 17 -9 3 -8 2 -12 -4 -9 -10 6 -14 -7 -11 -34 2 -8 -3 -10 -11
-5 -7 4 -10 4 -6 -1 4 -4 2 -15 -5 -23 -7 -10 -8 -13 -1 -9 7 4 17 0 23 -7 10
-11 9 -16 -3 -23 -9 -5 -17 -17 -19 -28 -1 -11 -7 -26 -11 -34 -7 -10 -6 -12
4 -6 10 6 12 4 7 -9 -4 -10 -7 -22 -7 -27 0 -6 -5 -7 -12 -3 -7 4 -8 3 -4 -5
4 -6 11 -9 16 -6 5 3 11 1 15 -5 3 -5 -1 -10 -9 -10 -18 0 -21 -11 -6 -26 7
-7 4 -18 -10 -34 -24 -27 -26 -38 -5 -20 23 19 18 3 -7 -21 -13 -12 -17 -19
-10 -15 8 5 12 0 12 -14 0 -12 -4 -19 -8 -16 -5 3 -9 -1 -9 -9 0 -8 4 -12 9
-9 15 10 4 -30 -12 -44 -8 -8 -10 -11 -4 -8 21 10 23 -19 3 -45 -10 -13 -19
-28 -19 -33 0 -6 6 -1 14 9 13 19 14 18 13 -7 -1 -14 -5 -24 -9 -22 -4 2 -9 0
-13 -5 -3 -5 3 -14 12 -20 10 -6 13 -11 6 -11 -6 0 -15 -9 -18 -20 -4 -12 -11
-17 -18 -14 -8 5 -8 2 1 -7 17 -19 15 -32 -4 -25 -14 5 -15 4 -4 -9 7 -8 9
-15 5 -15 -4 0 -2 -7 5 -15 10 -13 11 -18 1 -28 -10 -9 -11 -8 -6 4 4 10 0 19
-10 23 -11 4 -14 2 -8 -7 4 -6 9 -31 10 -55 2 -31 -1 -41 -10 -35 -7 4 -5 -1
3 -12 19 -23 19 -21 -5 -40 -13 -9 -14 -13 -4 -10 9 4 16 0 16 -9 0 -8 -6 -12
-15 -9 -12 5 -12 2 -3 -16 7 -12 8 -21 4 -20 -20 3 -27 -2 -13 -11 13 -9 13
-10 0 -10 -13 0 -13 -1 0 -10 12 -7 12 -12 2 -22 -15 -15 -16 -32 0 -22 7 5 8
3 4 -5 -5 -7 -13 -10 -20 -8 -6 3 -12 -6 -12 -19 -1 -13 3 -24 10 -24 6 0 4
-5 -4 -10 -8 -5 -11 -10 -7 -10 4 0 3 -8 -2 -18 -7 -13 -6 -23 1 -30 7 -7 8
-12 4 -12 -5 0 -2 -8 5 -17 8 -9 9 -14 3 -10 -7 4 -18 -1 -25 -10 -12 -14 -12
-16 1 -8 12 6 13 5 3 -6 -17 -17 -17 -32 0 -23 10 6 10 4 0 -7 -7 -7 -13 -21
-13 -31 0 -10 -6 -18 -12 -18 -9 0 -9 -3 1 -9 12 -7 12 -13 3 -24 -7 -7 -8
-18 -4 -22 4 -5 -1 -5 -11 -2 -16 6 -16 5 0 -20 13 -19 14 -25 4 -18 -11 6
-13 4 -8 -8 3 -9 1 -18 -6 -21 -8 -3 -7 -5 2 -5 11 -1 10 -4 -4 -14 -14 -11
-15 -16 -5 -22 9 -5 11 -4 6 3 -4 7 -2 12 4 12 7 0 10 -6 7 -12 -2 -7 -12 -12
-21 -12 -16 2 -16 0 1 -19 10 -11 13 -18 8 -14 -6 3 -16 -3 -23 -14 -10 -16
-10 -21 4 -26 15 -6 14 -7 -4 -14 -14 -5 -20 -14 -16 -24 3 -8 11 -12 16 -9 6
4 6 -1 -1 -13 -6 -11 -7 -24 -3 -28 4 -5 1 -5 -5 -1 -8 4 -13 1 -13 -9 0 -9 4
-13 10 -10 5 3 10 1 10 -4 0 -6 -10 -11 -22 -12 -13 0 -17 -3 -10 -6 6 -2 12
-11 12 -19 0 -10 -5 -12 -12 -8 -9 5 -9 2 1 -9 11 -14 11 -17 0 -17 -9 0 -10
-3 -4 -8 6 -4 11 -13 13 -21 3 -12 0 -12 -12 -1 -21 16 -21 6 0 -14 14 -15 14
-16 -5 -16 -13 0 -19 -5 -15 -14 3 -8 0 -17 -7 -22 -7 -4 -10 -3 -5 4 9 14
-14 21 -41 11 -19 -7 -21 -5 -18 19 2 15 2 21 -1 15 -3 -7 -15 -13 -25 -13
-11 0 -18 4 -15 9 5 7 -34 8 -41 1 -2 -1 -7 -3 -12 -4 -5 0 -13 -5 -18 -10 -4
-5 -3 -6 4 -2 6 3 15 1 19 -6 4 -7 4 -10 -1 -6 -4 4 -15 2 -23 -5 -11 -8 -14
-8 -9 0 4 6 3 14 -3 18 -6 3 -10 -3 -10 -16 0 -19 -2 -20 -17 -8 -15 12 -16
12 -10 -3 3 -10 2 -18 -4 -18 -6 0 -8 -4 -5 -9 3 -5 -2 -15 -12 -22 -15 -13
-16 -12 -3 4 13 16 11 17 -24 13 -31 -4 -38 -1 -42 15 -3 10 -9 16 -14 13 -5
-3 -6 -11 -2 -17 3 -7 -3 -4 -14 6 -11 9 -23 14 -28 10 -4 -5 -5 0 -2 9 3 10
1 20 -5 24 -7 5 -8 2 -3 -6 6 -10 3 -12 -14 -7 -18 4 -21 2 -16 -11 5 -13 1
-12 -16 4 -12 10 -19 14 -16 7 8 -12 -47 -36 -58 -25 -4 4 -5 -2 -3 -13 2 -16
-2 -20 -24 -19 -15 1 -25 -2 -22 -7 8 -14 -19 -47 -34 -41 -10 3 -13 1 -9 -5
4 -7 0 -10 -10 -8 -10 1 -24 -2 -31 -8 -7 -5 -15 -7 -19 -3 -3 3 -1 6 5 6 7 0
12 4 12 10 0 5 -6 9 -12 7 -8 -1 -12 6 -10 16 2 10 -3 26 -10 35 -9 11 -10 14
-1 8 15 -8 7 19 -11 43 -8 11 -8 13 2 7 6 -4 12 -3 12 3 0 5 -8 12 -17 14 -17
4 -17 5 -1 6 11 1 15 6 12 16 -4 8 -9 13 -13 10 -4 -2 -8 3 -8 11 0 8 6 13 14
10 10 -4 11 -1 4 13 -6 10 -7 21 -4 25 3 3 1 6 -6 6 -8 0 -11 -7 -6 -18 4 -12
3 -14 -4 -7 -7 7 -8 22 -2 43 7 23 6 31 -2 29 -7 -1 -13 9 -14 23 0 14 -1 31
-2 38 -1 6 -9 12 -18 13 -15 0 -15 2 -3 7 17 8 25 32 10 32 -5 0 -10 -5 -10
-12 0 -6 -2 -9 -5 -7 -2 3 -1 20 4 37 9 31 -1 53 -14 32 -3 -5 -12 -10 -18
-10 -8 0 -7 3 2 9 7 5 11 13 7 19 -3 6 -1 14 5 18 8 5 9 3 4 -6 -5 -9 -4 -11
4 -6 8 6 9 12 2 20 -6 7 -9 15 -6 18 3 3 -2 11 -12 19 -11 9 -14 10 -9 2 11
-19 1 -16 -15 4 -10 11 -10 14 -1 9 7 -4 12 -1 12 9 0 9 -4 14 -9 11 -5 -3
-11 1 -15 9 -3 8 0 17 6 21 7 5 8 2 3 -6 -6 -9 -4 -11 4 -6 9 6 8 13 -6 28
-10 11 -17 22 -15 24 4 7 -10 6 -16 -2 -4 -4 -1 -4 7 1 10 5 12 4 7 -4 -11
-17 -25 -4 -21 20 4 17 2 19 -10 9 -12 -10 -15 -9 -15 4 0 10 -5 14 -10 11 -6
-4 -8 -11 -5 -16 3 -5 -1 -6 -9 -3 -9 3 -16 11 -16 18 0 6 -5 4 -10 -4 -8 -13
-10 -13 -10 2 0 12 -5 15 -17 11 -11 -4 -14 -3 -9 5 5 8 1 10 -10 5 -12 -4
-15 -3 -10 5 5 8 1 10 -10 5 -13 -5 -15 -3 -9 8 7 11 5 11 -10 -1 -11 -9 -16
-10 -11 -2 4 6 2 12 -3 12 -6 0 -11 8 -11 18 0 14 -2 15 -10 2 -8 -12 -10 -10
-11 10 0 23 -1 23 -9 5 -8 -19 -9 -18 -9 4 -1 21 -3 22 -18 10 -11 -10 -14
-10 -9 -1 4 6 2 12 -3 12 -6 0 -11 7 -11 17 0 14 -3 14 -22 -3 -12 -10 -18
-14 -15 -8 4 7 0 17 -7 24 -8 6 -13 20 -11 32 4 16 2 18 -10 8 -15 -12 -21 -3
-16 24 1 5 -6 3 -15 -5 -12 -9 -15 -9 -10 -1 4 7 1 12 -9 12 -9 0 -13 -4 -10
-10 3 -5 1 -10 -4 -10 -15 0 -14 13 1 28 10 10 10 17 -1 35 -11 18 -11 20 0
10 18 -18 32 -16 25 3 -3 8 -2 12 3 9 5 -3 12 -1 16 5 3 5 1 10 -5 10 -6 0 -8
5 -5 10 4 6 10 8 15 5 5 -3 12 0 16 6 4 8 3 9 -4 5 -7 -4 -12 -3 -12 2 0 6 6
12 14 15 7 3 12 16 11 29 -2 16 5 29 19 38 20 12 20 12 6 -6 -14 -18 -14 -18
3 -5 13 11 15 17 6 28 -10 11 -8 12 5 7 9 -4 16 -3 15 2 -4 21 2 28 11 14 8
-13 10 -12 10 3 0 11 4 15 12 11 7 -5 9 -2 5 8 -8 21 3 31 19 17 15 -12 38 -3
29 12 -3 5 2 6 11 2 13 -5 15 -3 9 7 -6 10 -4 12 8 7 9 -3 18 0 21 9 3 8 13
14 23 14 15 0 15 2 -3 15 -14 11 -15 14 -2 9 12 -4 16 -1 14 13 -2 10 2 24 8
32 8 11 8 13 -1 8 -6 -4 -14 -3 -18 3 -3 5 2 10 12 10 15 0 15 2 3 9 -8 6 -18
7 -24 4 -5 -3 -6 -1 -2 6 4 6 12 9 17 6 5 -4 9 -1 9 6 0 8 4 8 15 -1 13 -11
14 -10 9 5 -5 11 -4 16 3 12 5 -4 19 0 29 8 18 13 18 14 -6 9 -20 -4 -18 -2 8
10 35 16 39 25 20 45 -8 9 -8 11 -2 8 7 -4 15 0 18 9 5 12 2 15 -11 10 -15 -6
-14 -4 2 14 19 20 19 21 -1 14 -16 -7 -17 -5 -7 7 11 13 9 15 -9 15 -19 -1
-22 4 -21 31 0 18 -4 30 -8 27 -5 -3 -9 2 -9 11 0 10 -5 13 -12 9 -7 -4 -8 -3
-4 5 6 9 11 9 21 1 12 -10 12 -7 2 14 -7 14 -15 26 -19 26 -5 0 -8 7 -8 15 0
8 -5 15 -12 15 -6 0 -8 3 -4 7 4 5 14 -1 22 -11 8 -11 14 -16 14 -10 0 15 -14
30 -34 38 -19 6 -19 7 0 22 10 9 14 13 7 10 -6 -4 -14 -2 -18 4 -3 5 -1 10 5
10 6 0 8 5 5 10 -4 6 -12 7 -18 3 -7 -3 -4 2 5 13 14 16 15 23 5 33 -10 11 -8
11 11 1 22 -11 23 -10 12 9 -9 18 -8 21 7 21 14 0 15 2 4 9 -7 5 -10 14 -7 20
4 6 2 10 -5 9 -6 -2 -14 3 -16 10 -3 8 1 10 14 6 16 -6 16 -5 -2 9 -11 9 -15
17 -7 17 6 0 12 7 12 16 0 9 -5 12 -12 8 -7 -5 -8 -3 -4 5 5 7 14 10 22 7 18
-7 18 -1 -2 18 -14 15 -14 16 5 16 12 0 21 5 21 11 0 5 -5 7 -12 3 -7 -4 -8
-3 -4 4 4 7 14 12 22 12 8 0 14 7 14 15 0 16 20 16 33 0 4 -6 7 -1 5 10 -2 15
2 20 19 19 13 0 21 2 18 4 -3 3 1 12 8 21 10 14 10 14 -3 4 -13 -10 -16 -8
-16 7 0 11 2 17 5 15 7 -8 41 27 41 42 0 9 5 11 13 7 9 -6 9 -4 -1 8 -10 13
-10 18 -1 24 8 5 10 3 4 -7 -5 -8 -4 -11 0 -6 16 14 13 46 -3 39 -11 -4 -13
-2 -7 9 5 8 10 27 11 42 2 23 0 26 -11 17 -11 -9 -12 -7 -8 9 3 14 1 21 -8 21
-11 0 -11 2 1 10 12 8 11 10 -7 10 -12 0 -25 5 -29 12 -5 8 -2 9 11 4 18 -6
18 -6 2 12 -9 10 -14 22 -10 25 3 4 1 7 -5 7 -7 0 -12 10 -12 21 0 18 -5 21
-29 17 -18 -3 -29 0 -28 6 1 6 -3 10 -10 9 -7 -2 -10 4 -7 12 4 9 1 22 -6 30
-11 13 -10 14 3 10 8 -4 18 -1 23 6 4 7 3 10 -4 5 -19 -12 -26 17 -7 31 18 13
18 13 -1 13 -19 1 -19 1 1 17 16 13 17 15 3 10 -20 -7 -25 9 -5 16 9 4 8 8 -3
16 -13 10 -13 11 0 11 13 0 13 1 0 10 -13 9 -13 10 0 10 13 0 13 1 0 10 -11 7
-11 10 -2 10 7 0 10 5 7 10 -4 6 -11 7 -17 4 -7 -4 -8 -2 -4 4 4 6 14 9 24 6
16 -5 16 -5 0 6 -20 12 -25 35 -5 24 9 -6 9 -5 0 8 -7 8 -9 19 -5 23 4 5 1 5
-6 1 -7 -4 -10 -11 -7 -16 3 -5 2 -11 -3 -14 -4 -2 -8 8 -7 24 0 15 3 27 6 25
3 -2 6 2 6 10 0 8 -4 12 -9 9 -4 -3 -8 2 -8 11 0 10 5 13 12 9 7 -5 8 -3 4 5
-5 7 -18 16 -30 21 -16 7 -17 9 -4 9 21 1 13 31 -7 31 -19 0 -28 17 -14 26 8
4 9 3 5 -4 -4 -7 -2 -12 3 -12 18 0 12 19 -9 32 -11 7 -20 16 -20 21 0 4 5 5
12 1 7 -4 8 -3 4 4 -4 7 -14 12 -23 12 -13 0 -13 3 -3 16 8 8 9 14 4 13 -21
-4 -28 2 -14 12 13 9 12 10 -2 5 -10 -3 -18 -1 -18 4 0 6 -8 18 -17 28 -10 10
-24 30 -32 45 -9 16 -20 26 -28 22 -8 -2 -11 0 -8 5 3 6 -1 10 -10 10 -10 0
-13 5 -9 12 5 8 2 9 -9 5 -9 -3 -19 -1 -23 5 -4 6 -3 8 4 4 6 -3 13 -2 16 3 3
4 -2 8 -12 8 -37 0 -44 3 -38 19 3 8 2 12 -4 9 -6 -3 -10 -2 -10 2 0 5 -12 10
-27 11 -16 1 -29 7 -31 12 -2 6 -12 10 -23 10 -10 0 -24 9 -31 20 -7 11 -16
20 -21 20 -4 0 -5 -4 -2 -10 3 -5 2 -10 -4 -10 -5 0 -13 5 -16 10 -4 6 -11 7
-17 4 -7 -4 -8 -2 -4 5 4 6 11 9 16 6 5 -3 11 -2 14 3 7 11 -48 10 -55 -1 -4
-5 -10 0 -14 12 -3 12 -15 21 -26 21 -10 0 -19 5 -19 11 0 6 -9 8 -22 4 -22
-7 -22 -6 -4 7 19 15 19 15 0 13 -11 0 -25 -5 -33 -9 -11 -7 -11 -4 0 15 12
23 11 23 -6 9 -11 -9 -16 -10 -11 -2 4 7 2 12 -4 12 -6 0 -8 5 -4 13 5 8 2 8
-9 -2 -12 -9 -17 -10 -17 -2 0 9 -5 9 -22 0 -19 -9 -21 -9 -10 2 16 18 15 34
-1 20 -11 -8 -20 -6 -37 9 -24 21 -35 26 -26 12 2 -4 -4 -8 -14 -8 -15 0 -17
3 -7 15 9 12 9 13 0 7 -7 -4 -13 -3 -13 1 0 5 -12 10 -27 11 -15 1 -30 8 -35
15 -6 9 -8 9 -8 -1 0 -10 -4 -10 -16 2 -19 19 -30 21 -18 3 5 -7 2 -5 -8 5
-11 13 -18 14 -20 6 -3 -8 -11 -5 -23 9 -15 17 -23 20 -43 12 -20 -8 -23 -7
-18 6 4 12 2 14 -11 7 -19 -11 -53 -4 -53 12 0 6 -5 4 -10 -4 -9 -13 -10 -13
-11 0 -1 8 -1 18 0 23 0 4 -4 7 -10 7 -6 0 -9 -7 -6 -15 4 -8 1 -17 -5 -21 -7
-5 -8 -2 -3 6 6 10 3 12 -13 8 -12 -4 -25 -1 -29 4 -4 7 -1 8 7 3 9 -5 11 -4
6 4 -6 9 -11 9 -22 0 -11 -9 -14 -9 -14 1 0 9 -4 9 -17 -1 -9 -8 -14 -9 -11
-4 4 6 -5 16 -19 22 -20 10 -24 9 -20 -1 3 -7 -1 -13 -9 -13 -7 0 -11 4 -8 8
2 4 0 10 -5 13 -5 4 -12 2 -16 -4 -3 -5 -12 -10 -18 -10 -8 0 -7 3 2 9 11 7 8
11 -10 17 -40 13 -59 11 -69 -5 -8 -14 -10 -14 -11 -1 -1 8 -1 19 0 24 1 5 -5
4 -13 -4 -9 -7 -16 -20 -17 -29 0 -12 -2 -11 -8 4 -5 11 -7 23 -4 28 6 10 1 8
-21 -8z m128 -13 c3 -5 -1 -9 -9 -9 -8 0 -12 4 -9 9 3 4 7 8 9 8 2 0 6 -4 9
-8z m363 -94 c-3 -8 -6 -5 -6 6 -1 11 2 17 5 13 3 -3 4 -12 1 -19z m1040
-1044 c-3 -3 -12 -4 -19 -1 -8 3 -5 6 6 6 11 1 17 -2 13 -5z m80 -171 c0 -9
-4 -10 -14 -2 -7 6 -13 12 -13 14 0 1 6 2 13 2 8 0 14 -6 14 -14z m-22 -112
c-3 -6 -11 -11 -16 -11 -5 0 -4 6 3 14 14 16 24 13 13 -3z m1090 -379 c-3 -3
-11 0 -18 7 -9 10 -8 11 6 5 10 -3 15 -9 12 -12z m-3644 -79 c13 -16 12 -17
-3 -4 -10 7 -18 15 -18 17 0 8 8 3 21 -13z m2430 -136 c-10 -9 -11 -8 -5 6 3
10 9 15 12 12 3 -3 0 -11 -7 -18z m-2467 -23 c3 -8 2 -12 -4 -9 -6 3 -10 10
-10 16 0 14 7 11 14 -7z m2516 -94 c0 -5 -5 -10 -11 -10 -5 0 -7 5 -4 10 3 6
8 10 11 10 2 0 4 -4 4 -10z m-2850 -50 c0 -5 -5 -10 -11 -10 -5 0 -7 5 -4 10
3 6 8 10 11 10 2 0 4 -4 4 -10z m2757 -85 c0 -8 -4 -12 -9 -9 -5 3 -6 10 -3
15 9 13 12 11 12 -6z m-3274 -597 c-11 -13 -19 -29 -17 -36 1 -7 0 -8 -3 -2
-2 5 -10 7 -16 3 -7 -4 -1 7 13 24 14 18 29 32 34 32 5 1 0 -9 -11 -21z m3454
-153 c0 -8 -4 -12 -9 -9 -5 3 -6 10 -3 15 9 13 12 11 12 -6z m219 -473 c-17
-16 -18 -16 -5 5 7 12 15 20 18 17 3 -2 -3 -12 -13 -22z"/>
<path d="M4926 4618 c3 -5 10 -6 15 -3 13 9 11 12 -6 12 -8 0 -12 -4 -9 -9z"/>
<path d="M2986 4368 c3 -5 10 -6 15 -3 13 9 11 12 -6 12 -8 0 -12 -4 -9 -9z"/>
<path d="M4750 4019 c0 -5 5 -7 10 -4 6 3 10 8 10 11 0 2 -4 4 -10 4 -5 0 -10
-5 -10 -11z"/>
<path d="M1030 3841 c0 -6 4 -13 10 -16 6 -3 7 1 4 9 -7 18 -14 21 -14 7z"/>
<path d="M1061 3473 c-7 -8 -11 -16 -8 -19 2 -2 10 2 17 11 17 20 9 27 -9 8z"/>
<path d="M4636 3382 c-3 -5 1 -9 9 -9 8 0 12 4 9 9 -3 4 -7 8 -9 8 -2 0 -6 -4
-9 -8z"/>
<path d="M955 3220 c-3 -5 -2 -10 4 -10 5 0 13 5 16 10 3 6 2 10 -4 10 -5 0
-13 -4 -16 -10z"/>
<path d="M4605 3111 c-3 -5 -2 -12 3 -15 5 -3 9 1 9 9 0 17 -3 19 -12 6z"/>
<path d="M955 3083 c2 -10 4 -21 4 -25 1 -5 6 -8 12 -8 8 0 7 6 -2 17 -8 9
-12 18 -11 20 2 3 1 7 -1 10 -3 3 -4 -3 -2 -14z"/>
<path d="M4500 2459 c0 -5 5 -7 10 -4 6 3 10 8 10 11 0 2 -4 4 -10 4 -5 0 -10
-5 -10 -11z"/>
<path d="M136 2088 c3 -5 10 -6 15 -3 13 9 11 12 -6 12 -8 0 -12 -4 -9 -9z"/>
<path d="M3146 2001 c-3 -5 1 -14 9 -21 10 -9 15 -9 15 -1 0 6 -5 11 -11 11
-5 0 -7 5 -4 10 3 6 4 10 1 10 -3 0 -7 -4 -10 -9z"/>
<path d="M4415 1931 c-3 -5 -2 -12 3 -15 5 -3 9 1 9 9 0 17 -3 19 -12 6z"/>
<path d="M3930 1291 c0 -6 4 -12 8 -15 5 -3 9 1 9 9 0 8 -4 15 -9 15 -4 0 -8
-4 -8 -9z"/>
</g>
</svg>
